Coordinates
version=1
nRows=12
nColumns=24
inDegrees=yes

Units are S.I. units (second, meters, Newtons, ...)
Angles are in degrees.

endheader
time	pelvis_tilt	pelvis_list	pelvis_rotation	pelvis_tx	pelvis_ty	pelvis_tz	hip_flexion_r	hip_adduction_r	hip_rotation_r	knee_angle_r	ankle_angle_r	subtalar_angle_r	mtp_angle_r	hip_flexion_l	hip_adduction_l	hip_rotation_l	knee_angle_l	ankle_angle_l	subtalar_angle_l	mtp_angle_l	lumbar_extension	lumbar_bending	lumbar_rotation
      1.35783333	      0.21270208	     -1.55165007	     -5.49074798	      0.85879365	      0.96262803	      0.30680504	    -23.94116537	      1.65371125	      1.63570277	     -3.61007225	     16.47802494	      0.12367651	      3.15391897	     24.89418892	     -3.35848038	     -3.60828762	      9.08372934	      2.13325175	     -0.26714696	      1.88146731	    -15.18309848	      6.68042945	     10.72483625
      1.36200000	      0.24158969	     -1.45013084	     -5.59006843	      0.86483331	      0.96194080	      0.30660680	    -24.13368980	      1.44939835	      1.53031151	     -3.98424646	     16.34836446	      0.26665408	      3.56234078	     24.94368930	     -3.30735890	     -3.21525448	      8.46525421	      2.13311920	     -0.83288778	      1.90996606	    -15.20141967	      6.48837082	     10.72695687
      1.36616667	      0.26559351	     -1.33683168	     -5.67874663	      0.87092062	      0.96127840	      0.30641116	    -24.34854259	      1.24261534	      1.47218230	     -4.29589031	     16.14828975	      0.26403490	      3.62735296	     25.04655190	     -3.23384158	     -2.99879916	      7.71345905	      2.20575647	     -1.10227600	      1.91857374	    -15.21187258	      6.30373518	     10.72936273
      1.37033333	      0.27646682	     -1.22783123	     -5.76597086	      0.87705910	      0.96059511	      0.30616666	    -24.51069058	      1.03539542	      1.32966210	     -4.69429544	     15.99251668	      0.45243008	      4.08903236	     25.07503335	     -3.16262280	     -2.45675422	      7.11775695	      1.97242693	     -2.00047685	      1.96147032	    -15.20496185	      6.09902484	     10.75460807
      1.37450000	      0.28091160	     -1.10532749	     -5.84663931	      0.88326211	      0.95994121	      0.30591358	    -24.67653427	      0.82037064	      1.20103762	     -5.06538074	     15.76047273	      0.53207178	      4.63311017	     25.13648037	     -3.06647794	     -2.04735900	      6.43902376	      1.77383710	     -2.70924887	      2.02193619	    -15.17677449	      5.89544683	     10.77695692
      1.37866667	      0.29923219	     -0.96124570	     -5.92212194	      0.88953247	      0.95932633	      0.30564964	    -24.87308680	      0.58513827	      1.07814535	     -5.38751405	     15.39481124	      0.45760631	     10.07092189	     25.20181263	     -2.93770944	     -1.73667681	      5.70232888	      1.58219867	     -3.30095025	      2.76513271	    -15.15618698	      5.66840475	     10.75503499
      1.38283333	      0.26422899	     -0.80428158	     -6.02366097	      0.89586032	      0.95868739	      0.30540636	    -24.98392062	      0.33295384	      0.96933263	     -5.77831131	     15.12518876	      0.48969532	     10.13172804	     25.29192338	     -2.80405605	     -1.43697866	      5.01389166	      1.21614624	     -4.01579886	      2.76477432	    -15.05860365	      5.41908862	     10.81918058
      1.38700000	      0.24734499	     -0.64001237	     -6.12639448	      0.90222761	      0.95809867	      0.30514152	    -25.09735662	      0.06999993	      0.83638061	     -6.19853568	     14.82476063	      0.51463889	     10.25973273	     25.35372434	     -2.65447678	     -1.11223819	      4.33179075	      0.79866778	     -4.80448632	      2.77835842	    -14.98838253	      5.16742525	     10.83585720
      1.39116667	      0.22060804	     -0.46104967	     -6.23740771	      0.90862992	      0.95753373	      0.30486204	    -25.17760807	     -0.21076437	      0.70700434	     -6.65988823	     14.48812285	      0.51406494	     10.47143404	     25.41343890	     -2.48643504	     -0.81248195	      3.66619284	      0.31433213	     -5.62516482	      2.79806886	    -14.90567007	      4.90348815	     10.85727528
      1.39533333	      0.17916527	     -0.27063663	     -6.34906690	      0.91508961	      0.95698168	      0.30457779	    -25.23996941	     -0.50071407	      0.57866890	     -7.11839144	     14.12143340	      0.48744422	     10.75673070	     25.48986605	     -2.30188777	     -0.55136608	      3.00092364	     -0.27913596	     -6.46158575	      2.83546539	    -14.79861585	      4.62600190	     10.89189096
      1.39950000	      0.12854731	     -0.06019230	     -6.45770245	      0.92160377	      0.95645947	      0.30427208	    -25.28162348	     -0.80859724	      0.43398433	     -7.59280935	     13.73441219	      0.44379340	     11.10991702	     25.57461185	     -2.08895530	     -0.33978899	      2.33633635	     -0.95620278	     -7.31563984	      2.88640739	    -14.66280795	      4.33333184	     10.92166817
      1.40366667	      0.06331700	      0.16372108	     -6.56972360	      0.92816145	      0.95595715	      0.30396977	    -25.29561461	     -1.12794344	      0.30358345	     -8.08407021	     13.31455896	      0.36785074	     11.50375182	     25.67465159	     -1.86092956	     -0.18045076	      1.68093336	     -1.70664416	     -8.12800664	      2.94024352	    -14.50654161	      4.01951874	     10.95723464
